# xmcd
#
# Track frame offsets: 
#        150
#        12721
#        30220
#        45634
#        58754
#        74701
#        93528
#
# Disc length: 1507 seconds
#
# Revision: 0
# Processed by: cddbd v1.5.2PL0 Copyright (c) Steve Scherf et al.
# Submitted via: ExactAudioCopy v0.95b4
#
DISCID=5e05e107
DTITLE=Tish And C0mpany - Tish And Company
DYEAR=2010
DGENRE=Bluegrass
TTITLE0=I'm Gone
TTITLE1=Outside Looking In
TTITLE2=The Storybook
TTITLE3=Trust Me
TTITLE4=Wishes In The Mirror
TTITLE5=Wounded
TTITLE6=Wicked Way
EXTD=
EXTT0=
EXTT1=
EXTT2=
EXTT3=
EXTT4=
EXTT5=
EXTT6=
PLAYORDER=
